<?xml version="1.0" encoding="utf-8"?>
<!-- Uploaded to: SVG Repo, www.svgrepo.com, Generator: SVG Repo Mixer Tools -->
<svg width="800px" height="800px" viewBox="0 0 1024 1024" class="icon"  version="1.1" xmlns="http://www.w3.org/2000/svg"><path d="M864.296415 227.225751H482.447598c0.968596-3.162782 1.612619-6.389044 1.870638-9.780153l293.472155-89.698498c8.716336-2.680532 13.620746-11.911882 10.977075-20.65791-2.713296-8.716336-11.94567-13.620746-20.65791-10.974003l-291.796055 89.183484c-8.907802-13.168189-24.013183-21.850737-41.121283-21.850737-13.42928 0-25.563345 5.387685-34.474218 14.070232L272.31766 110.671765c-8.071288-4.227623-18.076695-1.063817-22.274625 7.037164-4.194858 8.068216-1.031053 18.073624 7.037164 22.270529l129.113987 67.235478c-0.194538 1.937191-0.581567 3.80783-0.581567 5.810549 0 4.970963 0.968596 9.680836 2.323196 14.199242H157.730558c-13.687299 0-24.789288 11.122466-24.789287 24.80567v438.01507c0 13.687299 11.101989 24.789288 24.789287 24.789288h66.554594v164.42472h-25.367783c-13.687299 0-24.789288 11.101989-24.789287 24.789288 0 13.687299 11.101989 24.789288 24.789287 24.789287h100.318237c13.687299 0 24.789288-11.101989 24.789287-24.789287 0-13.687299-11.103012-24.789288-24.789287-24.789288h-25.371879V714.836802h476.491657v164.424721h-20.919001c-13.684227 0-24.789288 11.101989-24.789287 24.789287 0 13.687299 11.106084 24.789288 24.789287 24.789288h100.321308c13.687299 0 24.789288-11.101989 24.789288-24.789288 0-13.687299-11.101989-24.789288-24.789288-24.789287H799.933959V714.836802h64.360408c13.687299 0 24.789288-11.101989 24.789288-24.789287V252.03142c0.002048-13.683203-11.099941-24.80567-24.78724-24.805669z" fill="#27323A" /><path d="M182.519846 276.821732h656.986257v388.436495h-656.986257z" fill="#F4CE73" /><path d="M217.896108 295.350985c-9.102341 0-16.526533 7.423169-16.526533 16.526533v316.519813c0 9.165821 7.423169 16.526533 16.526533 16.526534h586.233733a16.475339 16.475339 0 0 0 16.526533-16.526534V311.877518c0-9.103364-7.35764-16.526533-16.526533-16.526533H217.896108z" fill="#27323A" /><path d="M787.603308 328.403027v283.466748H234.422641V328.403027h553.180667z" fill="#FFFFFF" /><path d="M267.475707 361.456093h487.075559v217.361639H267.475707z" fill="#79CCBF" /></svg>